<svg width="34" height="34" viewBox="0 0 34 34" fill="none" xmlns="http://www.w3.org/2000/svg">
<path d="M17 10.3333C16.558 10.3333 16.1341 10.5089 15.8215 10.8215C15.5089 11.134 15.3333 11.558 15.3333 12C15.3333 12.442 15.5089 12.8659 15.8215 13.1785C16.1341 13.4911 16.558 13.6667 17 13.6667C17.8841 13.6667 18.7319 14.0179 19.357 14.643C19.9821 15.2681 20.3333 16.1159 20.3333 17C20.3333 17.8841 19.9821 18.7319 19.357 19.357C18.7319 19.9821 17.8841 20.3333 17 20.3333C16.558 20.3333 16.1341 20.5089 15.8215 20.8215C15.5089 21.134 15.3333 21.558 15.3333 22C15.3333 22.442 15.5089 22.8659 15.8215 23.1785C16.1341 23.4911 16.558 23.6667 17 23.6667C18.7681 23.6667 20.4638 22.9643 21.714 21.714C22.9643 20.4638 23.6667 18.7681 23.6667 17C23.6667 15.2319 22.9643 13.5362 21.714 12.286C20.4638 11.0357 18.7681 10.3333 17 10.3333ZM33.1833 15.8167L29.2667 12V6.4C29.2667 5.95797 29.0911 5.53405 28.7785 5.22149C28.466 4.90893 28.042 4.73333 27.6 4.73333H22.0833L18.1833 0.816667C18.0284 0.660453 17.8441 0.536462 17.641 0.451848C17.4379 0.367233 17.22 0.323669 17 0.323669C16.78 0.323669 16.5621 0.367233 16.359 0.451848C16.1559 0.536462 15.9716 0.660453 15.8167 0.816667L12 4.73333H6.4C5.95797 4.73333 5.53405 4.90893 5.22149 5.22149C4.90893 5.53405 4.73333 5.95797 4.73333 6.4V12L0.816667 15.8167C0.660453 15.9716 0.536462 16.1559 0.451848 16.359C0.367233 16.5621 0.323669 16.78 0.323669 17C0.323669 17.22 0.367233 17.4379 0.451848 17.641C0.536462 17.8441 0.660453 18.0284 0.816667 18.1833L4.73333 22.0833V27.6C4.73333 28.042 4.90893 28.4659 5.22149 28.7785C5.53405 29.0911 5.95797 29.2667 6.4 29.2667H12L15.9 33.1833C16.0549 33.3395 16.2393 33.4635 16.4424 33.5481C16.6455 33.6328 16.8633 33.6763 17.0833 33.6763C17.3034 33.6763 17.5212 33.6328 17.7243 33.5481C17.9274 33.4635 18.1117 33.3395 18.2667 33.1833L22.1667 29.2667H27.6833C28.1254 29.2667 28.5493 29.0911 28.8618 28.7785C29.1744 28.4659 29.35 28.042 29.35 27.6V22.0833L33.2667 18.1833C33.4176 18.023 33.5352 17.8343 33.6127 17.6282C33.6902 17.4221 33.7262 17.2027 33.7184 16.9826C33.7107 16.7626 33.6594 16.5462 33.5676 16.3461C33.4757 16.146 33.3451 15.966 33.1833 15.8167ZM26.4333 20.2167C26.2759 20.371 26.1506 20.5551 26.0647 20.7582C25.9789 20.9613 25.9343 21.1795 25.9333 21.4V25.9333H21.4C21.1795 25.9342 20.9613 25.9789 20.7582 26.0647C20.5551 26.1506 20.371 26.2759 20.2167 26.4333L17 29.65L13.7833 26.4333C13.629 26.2759 13.4449 26.1506 13.2418 26.0647C13.0387 25.9789 12.8205 25.9342 12.6 25.9333H8.06667V21.4C8.06575 21.1795 8.02109 20.9613 7.93526 20.7582C7.84943 20.5551 7.72415 20.371 7.56667 20.2167L4.35 17L7.56667 13.7833C7.72415 13.629 7.84943 13.4449 7.93526 13.2418C8.02109 13.0386 8.06575 12.8205 8.06667 12.6V8.06667H12.6C12.8205 8.06575 13.0387 8.02108 13.2418 7.93526C13.4449 7.84943 13.629 7.72415 13.7833 7.56667L17 4.35L20.2167 7.56667C20.371 7.72415 20.5551 7.84943 20.7582 7.93526C20.9613 8.02108 21.1795 8.06575 21.4 8.06667H25.9333V12.6C25.9343 12.8205 25.9789 13.0386 26.0647 13.2418C26.1506 13.4449 26.2759 13.629 26.4333 13.7833L29.65 17L26.4333 20.2167Z" fill="#3D3D3D"/>
</svg>
