<svg width="19" height="20" viewBox="0 0 19 20" fill="none" xmlns="http://www.w3.org/2000/svg">
<path d="M17.5189 18H1.78098C1.48284 18 1.19691 18.1054 0.986098 18.2929C0.775281 18.4804 0.656845 18.7348 0.656845 19C0.656845 19.2652 0.775281 19.5196 0.986098 19.7071C1.19691 19.8946 1.48284 20 1.78098 20H17.5189C17.8171 20 18.103 19.8946 18.3138 19.7071C18.5246 19.5196 18.6431 19.2652 18.6431 19C18.6431 18.7348 18.5246 18.4804 18.3138 18.2929C18.103 18.1054 17.8171 18 17.5189 18ZM8.85181 15.71C8.95872 15.801 9.08479 15.8724 9.22278 15.92C9.35734 15.9729 9.50283 16.0002 9.64995 16.0002C9.79706 16.0002 9.94256 15.9729 10.0771 15.92C10.2151 15.8724 10.3412 15.801 10.4481 15.71L14.9446 11.71C15.1563 11.5217 15.2752 11.2663 15.2752 11C15.2752 10.7337 15.1563 10.4783 14.9446 10.29C14.733 10.1017 14.4459 9.99591 14.1465 9.99591C13.8471 9.99591 13.56 10.1017 13.3484 10.29L10.7741 12.59V1C10.7741 0.734784 10.6557 0.48043 10.4448 0.292893C10.234 0.105357 9.94809 0 9.64995 0C9.35181 0 9.06588 0.105357 8.85506 0.292893C8.64425 0.48043 8.52581 0.734784 8.52581 1V12.59L5.95153 10.29C5.84672 10.1968 5.72229 10.1228 5.58535 10.0723C5.4484 10.0219 5.30162 9.99591 5.1534 9.99591C5.00517 9.99591 4.85839 10.0219 4.72145 10.0723C4.5845 10.1228 4.46007 10.1968 4.35526 10.29C4.25045 10.3832 4.1673 10.4939 4.11058 10.6158C4.05386 10.7376 4.02466 10.8681 4.02466 11C4.02466 11.1319 4.05386 11.2624 4.11058 11.3842C4.1673 11.5061 4.25045 11.6168 4.35526 11.71L8.85181 15.71Z" fill="#3D3D3D"/>
</svg>
