<svg width="30" height="31" viewBox="0 0 30 31" fill="none" xmlns="http://www.w3.org/2000/svg">
<path d="M15 0.870049C11.4383 0.870196 7.99274 2.13772 5.27999 4.44582C2.56724 6.75392 0.764293 9.95198 0.193741 13.4678C-0.376811 16.9836 0.322268 20.5877 2.16589 23.6352C4.00951 26.6827 6.87737 28.9748 10.2563 30.1013C11.0063 30.2326 11.2876 29.7826 11.2876 29.3888C11.2876 29.0325 11.2688 27.8513 11.2688 26.595C7.50004 27.2888 6.52504 25.6763 6.22504 24.8326C5.89215 24.012 5.36445 23.2848 4.68754 22.7138C4.16254 22.4325 3.41254 21.7388 4.66878 21.7201C5.14846 21.7721 5.60852 21.939 6.00999 22.2067C6.41145 22.4743 6.74249 22.8348 6.97504 23.2575C7.1802 23.6261 7.45606 23.9505 7.78683 24.2123C8.11759 24.474 8.49675 24.6679 8.90259 24.7829C9.30843 24.8979 9.73296 24.9316 10.1519 24.8822C10.5708 24.8328 10.9758 24.7012 11.3438 24.495C11.4087 23.7325 11.7486 23.0195 12.3 22.4888C8.96254 22.1138 5.47504 20.82 5.47504 15.0826C5.45396 13.5918 6.00407 12.1495 7.01254 11.0513C6.55396 9.75567 6.60762 8.33377 7.16254 7.07634C7.16254 7.07634 8.41875 6.68258 11.2875 8.61384C13.742 7.9388 16.3331 7.9388 18.7875 8.61384C21.6563 6.66384 22.9125 7.07634 22.9125 7.07634C23.4675 8.33375 23.5212 9.75568 23.0625 11.0513C24.0741 12.1476 24.6246 13.5912 24.6 15.0826C24.6 20.8388 21.0938 22.1138 17.7563 22.4888C18.1143 22.8517 18.39 23.2873 18.5647 23.7661C18.7394 24.2449 18.809 24.7557 18.7688 25.2638C18.7688 27.2701 18.75 28.8826 18.75 29.3888C18.75 29.7826 19.0313 30.2513 19.7813 30.1013C23.1543 28.9656 26.0139 26.6682 27.8497 23.6191C29.6854 20.57 30.3779 16.9678 29.8034 13.4554C29.2289 9.94302 27.4248 6.74911 24.7132 4.44381C22.0017 2.13852 18.5591 0.871901 15 0.870049V0.870049Z" fill="#A3ABB2"/>
</svg>
